<?xml version="1.0" encoding="utf-8"?>
<!-- Generator: Adobe Illustrator 19.0.0, SVG Export Plug-In . SVG Version: 6.00 Build 0)  -->
<svg version="1.1" id="Camada_1" xmlns="http://www.w3.org/2000/svg" xmlns:xlink="http://www.w3.org/1999/xlink" x="0px" y="0px"
	 viewBox="0 0 125.2 48.8" style="enable-background:new 0 0 125.2 48.8;" xml:space="preserve">
<style type="text/css">
	.st0{fill:#FFFFFF;}
	.st1{fill:#E6213F;}
</style>
<g id="XMLID_2_">
	<path id="XMLID_3_" class="st0" d="M9.4,3.8H14v20.7H9.4V3.8z"/>
	<path id="XMLID_5_" class="st0" d="M25.8,7.9c-0.4,0.4-0.7,0.8-0.7,1.4c0,0.6,0.3,1.1,0.8,1.4c0.5,0.4,1.8,0.8,3.8,1.3
		c2,0.5,3.5,1.2,4.6,2.2c1.1,1,1.6,2.4,1.6,4.2s-0.7,3.4-2.1,4.5c-1.4,1.2-3.2,1.7-5.5,1.7c-3.3,0-6.2-1.2-8.8-3.6l2.8-3.4
		c2.2,2,4.3,2.9,6.2,2.9c0.8,0,1.5-0.2,2-0.5c0.5-0.4,0.7-0.9,0.7-1.5c0-0.6-0.3-1.1-0.8-1.5c-0.5-0.4-1.5-0.7-3-1.1
		c-2.4-0.6-4.2-1.3-5.3-2.2c-1.1-0.9-1.7-2.4-1.7-4.3c0-2,0.7-3.5,2.1-4.5c1.4-1.1,3.2-1.6,5.3-1.6c1.4,0,2.8,0.2,4.1,0.7
		s2.6,1.1,3.6,2l-2.3,3.4c-1.8-1.4-3.6-2-5.6-2C26.8,7.4,26.2,7.6,25.8,7.9z"/>
	<path id="XMLID_7_" class="st0" d="M56.1,24.5L54.2,20h-8.7l-1.9,4.5h-4.9l8.9-20.7h4.5l8.9,20.7H56.1z M49.9,10l-2.6,6h5.2
		L49.9,10z"/>
	<path id="XMLID_10_" class="st0" d="M65.3,3.8h4.6v20.7h-4.6V3.8z"/>
	<path id="XMLID_12_" class="st0" d="M91.5,24.5L89.6,20H81L79,24.5h-4.9l8.9-20.7h4.5l8.9,20.7H91.5z M85.3,10l-2.6,6h5.2L85.3,10z
		"/>
	<path id="XMLID_15_" class="st0" d="M105.4,7.9c-0.4,0.4-0.7,0.8-0.7,1.4c0,0.6,0.3,1.1,0.8,1.4c0.5,0.4,1.8,0.8,3.8,1.3
		c2,0.5,3.5,1.2,4.6,2.2c1.1,1,1.6,2.4,1.6,4.2s-0.7,3.4-2.1,4.5c-1.4,1.2-3.2,1.7-5.5,1.7c-3.3,0-6.2-1.2-8.8-3.6l2.8-3.4
		c2.2,2,4.3,2.9,6.2,2.9c0.8,0,1.5-0.2,2-0.5c0.5-0.4,0.7-0.9,0.7-1.5c0-0.6-0.3-1.1-0.8-1.5c-0.5-0.4-1.5-0.7-3-1.1
		c-2.4-0.6-4.2-1.3-5.3-2.2c-1.1-0.9-1.7-2.4-1.7-4.3c0-2,0.7-3.5,2.1-4.5c1.4-1.1,3.2-1.6,5.3-1.6c1.4,0,2.8,0.2,4.1,0.7
		s2.6,1.1,3.6,2l-2.3,3.4c-1.8-1.4-3.6-2-5.6-2C106.4,7.4,105.8,7.6,105.4,7.9z"/>
</g>
<rect id="XMLID_1_" x="2.6" y="26" class="st1" width="120" height="21"/>
<path class="st0" d="M9.7,32.5v3.5h5.7v2H9.7v5.3H7.5V30.5h8.6l0,2H9.7z"/>
<path class="st0" d="M28.9,34.7c0,2.1-0.9,3.5-2.8,4l3.4,4.7h-2.8l-3.1-4.3h-2.9v4.3h-2.2V30.5h4.8c2,0,3.4,0.3,4.2,1
	C28.5,32.2,28.9,33.2,28.9,34.7z M26,36.5c0.4-0.4,0.7-1,0.7-1.8c0-0.8-0.2-1.4-0.7-1.7c-0.5-0.3-1.3-0.5-2.4-0.5h-2.8v4.6h2.7
	C24.8,37.1,25.6,36.9,26,36.5z"/>
<path class="st0" d="M33.9,40.5l-1.3,2.9h-2.3L36,30.5h2.3L44,43.4h-2.3l-1.3-2.9H33.9z M39.5,38.5l-2.3-5.3l-2.3,5.3H39.5z"/>
<path class="st0" d="M55.4,30.5h2.2v12.9h-2.4L47.9,34v9.4h-2.2V30.5h2.2l7.5,9.6V30.5z"/>
<path class="st0" d="M67.1,41.4c0.8,0,1.4-0.1,1.9-0.4c0.5-0.3,1.1-0.7,1.7-1.2l1.4,1.4c-1.4,1.5-3,2.3-5,2.3
	c-1.9,0-3.6-0.6-4.9-1.9c-1.3-1.3-1.9-2.8-1.9-4.8c0-1.9,0.7-3.5,2-4.8c1.3-1.3,3-1.9,5-1.9c2,0,3.7,0.7,5,2.2l-1.4,1.5
	c-0.6-0.6-1.2-1-1.7-1.2c-0.5-0.2-1.2-0.4-1.9-0.4c-1.3,0-2.4,0.4-3.3,1.3c-0.9,0.8-1.3,1.9-1.3,3.2c0,1.3,0.4,2.4,1.3,3.3
	C64.8,41,65.9,41.4,67.1,41.4z"/>
<path class="st0" d="M74.8,30.5h2.2v12.9h-2.2V30.5z"/>
<path class="st0" d="M84.4,32.2c-0.6,0-1.2,0.1-1.6,0.4c-0.4,0.3-0.6,0.6-0.6,1.2c0,0.5,0.2,0.9,0.6,1.2c0.4,0.3,1.3,0.6,2.6,0.9
	c1.3,0.3,2.3,0.8,3,1.3c0.7,0.6,1,1.4,1,2.6c0,1.1-0.4,2-1.3,2.7c-0.8,0.7-2,1.1-3.3,1.1c-2,0-3.8-0.7-5.4-2.1l1.4-1.6
	c1.3,1.1,2.7,1.7,4.1,1.7c0.7,0,1.3-0.2,1.7-0.5c0.4-0.3,0.6-0.7,0.6-1.2c0-0.5-0.2-0.9-0.6-1.2c-0.4-0.3-1.1-0.5-2-0.8
	c-0.9-0.2-1.7-0.4-2.2-0.6c-0.5-0.2-0.9-0.4-1.3-0.7C80.4,36,80,35.1,80,33.9c0-1.2,0.4-2.1,1.3-2.8c0.9-0.6,1.9-1,3.2-1
	c0.8,0,1.6,0.1,2.5,0.4c0.8,0.3,1.5,0.7,2.1,1.1l-1.2,1.6c-0.4-0.3-0.9-0.6-1.5-0.8C85.7,32.3,85.1,32.2,84.4,32.2z"/>
<path class="st0" d="M98,41.4c0.8,0,1.4-0.1,1.9-0.4c0.5-0.3,1.1-0.7,1.7-1.2l1.4,1.4c-1.4,1.5-3,2.3-5,2.3c-1.9,0-3.6-0.6-4.9-1.9
	c-1.3-1.3-1.9-2.8-1.9-4.8c0-1.9,0.7-3.5,2-4.8c1.3-1.3,3-1.9,5-1.9c2,0,3.7,0.7,5,2.2l-1.4,1.5c-0.6-0.6-1.2-1-1.7-1.2
	c-0.5-0.2-1.2-0.4-1.9-0.4c-1.3,0-2.4,0.4-3.3,1.3c-0.9,0.8-1.3,1.9-1.3,3.2c0,1.3,0.4,2.4,1.3,3.3C95.8,41,96.8,41.4,98,41.4z"/>
<path class="st0" d="M116.2,41.6c-1.3,1.3-2.9,1.9-4.8,1.9c-1.9,0-3.5-0.6-4.8-1.9c-1.3-1.3-2-2.9-2-4.8c0-1.9,0.7-3.5,2-4.8
	c1.3-1.3,2.9-1.9,4.8-1.9c1.9,0,3.5,0.6,4.8,1.9c1.3,1.3,2,2.9,2,4.8C118.2,38.8,117.6,40.3,116.2,41.6z M114.7,33.5
	c-0.9-0.9-2-1.4-3.2-1.4c-1.3,0-2.4,0.5-3.2,1.4c-0.9,0.9-1.3,2-1.3,3.3c0,1.3,0.4,2.4,1.3,3.3c0.9,0.9,2,1.4,3.2,1.4
	c1.3,0,2.4-0.5,3.2-1.4c0.9-0.9,1.3-2,1.3-3.3C116,35.6,115.5,34.5,114.7,33.5z"/>
<g id="XMLID_198_">
</g>
<g id="XMLID_199_">
</g>
<g id="XMLID_200_">
</g>
<g id="XMLID_201_">
</g>
<g id="XMLID_202_">
</g>
<g id="XMLID_203_">
</g>
</svg>
